<svg xmlns="http://www.w3.org/2000/svg" viewBox="0 0 24 30" x="0px" y="0px"><title>ui 41</title><g data-name="Layer 2"><path d="M21,2.25H3A1.75213,1.75213,0,0,0,1.25,4V20A1.75213,1.75213,0,0,0,3,21.75H21A1.75213,1.75213,0,0,0,22.75,20V4A1.75213,1.75213,0,0,0,21,2.25ZM9.5,7A1.5,1.5,0,1,1,8,8.5,1.5,1.5,0,0,1,9.5,7ZM20.14014,17.07129a1.24479,1.24479,0,0,1-1.11182.67871H6.04053a1.25047,1.25047,0,0,1-.97608-2.03125L7.8418,12.24707a1.74312,1.74312,0,0,1,2.3374-.3623l1.44971.96679a.24975.24975,0,0,0,.33838-.05859l1.61279-2.15039A1.81311,1.81311,0,0,1,15,9.94336a1.7337,1.7337,0,0,1,1.4043.73144l3.64013,5.09711.00049.00055A1.24451,1.24451,0,0,1,20.14014,17.07129Z"/></g><text x="0" y="39" fill="#000000" font-size="5px" font-weight="bold" font-family="'Helvetica Neue', Helvetica, Arial-Unicode, Arial, Sans-serif">Created by Anggara Putra</text><text x="0" y="44" fill="#000000" font-size="5px" font-weight="bold" font-family="'Helvetica Neue', Helvetica, Arial-Unicode, Arial, Sans-serif">from the Noun Project</text></svg>